<svg xmlns="http://www.w3.org/2000/svg" xmlns:xlink="http://www.w3.org/1999/xlink" width="400" zoomAndPan="magnify" viewBox="0 0 300 149.999998" height="200" preserveAspectRatio="xMidYMid meet" version="1.0"><defs><g/></defs><g fill="#e1bb80" fill-opacity="1"><g transform="translate(31.760487, 131.732481)"><g><path d="M 26.53125 -36.34375 L 45.140625 -36.34375 L 45.140625 -55.203125 L 65.890625 -55.203125 L 65.890625 -36.34375 L 77.84375 -36.34375 L 77.84375 -19.359375 L 65.890625 -19.359375 L 65.890625 0 L 45.140625 0 L 45.140625 -19.359375 L 3.390625 -19.359375 L 3.390625 -34.328125 L 31.1875 -88.03125 L 52.6875 -88.03125 Z M 26.53125 -36.34375 "/></g></g></g><g fill="#e1bb80" fill-opacity="1"><g transform="translate(111.35525, 131.732481)"><g><path d="M 44.265625 -88.78125 C 56.753906 -88.78125 66.351562 -84.921875 73.0625 -77.203125 C 79.769531 -69.492188 83.125 -58.472656 83.125 -44.140625 C 83.125 -29.722656 79.769531 -18.65625 73.0625 -10.9375 C 66.351562 -3.226562 56.753906 0.625 44.265625 0.625 C 31.691406 0.625 22.03125 -3.226562 15.28125 -10.9375 C 8.53125 -18.65625 5.15625 -29.722656 5.15625 -44.140625 C 5.15625 -58.472656 8.53125 -69.492188 15.28125 -77.203125 C 22.03125 -84.921875 31.691406 -88.78125 44.265625 -88.78125 Z M 44.265625 -72.4375 C 38.566406 -72.4375 34.457031 -70.234375 31.9375 -65.828125 C 29.425781 -61.429688 28.171875 -54.203125 28.171875 -44.140625 C 28.171875 -34.078125 29.425781 -26.820312 31.9375 -22.375 C 34.457031 -17.9375 38.566406 -15.71875 44.265625 -15.71875 C 49.796875 -15.71875 53.835938 -17.957031 56.390625 -22.4375 C 58.953125 -26.925781 60.234375 -34.160156 60.234375 -44.140625 C 60.234375 -54.117188 58.953125 -61.328125 56.390625 -65.765625 C 53.835938 -70.210938 49.796875 -72.4375 44.265625 -72.4375 Z M 44.265625 -72.4375 "/></g></g></g><g fill="#e1bb80" fill-opacity="1"><g transform="translate(199.751962, 131.732481)"><g><path d="M 26.53125 -36.34375 L 45.140625 -36.34375 L 45.140625 -55.203125 L 65.890625 -55.203125 L 65.890625 -36.34375 L 77.84375 -36.34375 L 77.84375 -19.359375 L 65.890625 -19.359375 L 65.890625 0 L 45.140625 0 L 45.140625 -19.359375 L 3.390625 -19.359375 L 3.390625 -34.328125 L 31.1875 -88.03125 L 52.6875 -88.03125 Z M 26.53125 -36.34375 "/></g></g></g><path stroke-linecap="butt" transform="matrix(0.75, 0, 0, 0.75, 26.203126, -12.574872)" fill="none" stroke-linejoin="miter" d="M 35.364584 136.537338 L 60.171877 136.537338 L 60.171877 111.40192 L 87.843754 111.40192 L 87.843754 136.537338 L 103.76563 136.537338 L 103.76563 159.172756 L 87.843754 159.172756 L 87.843754 185.000882 L 60.171877 185.000882 L 60.171877 159.172756 L 4.541665 159.172756 L 4.541665 139.235255 L 41.588543 67.646709 L 70.239586 67.646709 Z M 165.15105 66.620667 C 181.796884 66.620667 194.583343 71.766501 203.505219 82.05296 C 212.453136 92.344627 216.932303 107.037336 216.932303 126.141504 C 216.932303 145.37588 212.453136 160.141506 203.505219 170.427965 C 194.583343 180.688382 181.796884 185.818591 165.15105 185.818591 C 148.369799 185.818591 135.473965 180.688382 126.468756 170.427965 C 117.489589 160.141506 113.005213 145.37588 113.005213 126.141504 C 113.005213 107.037336 117.489589 92.344627 126.468756 82.05296 C 135.473965 71.766501 148.369799 66.620667 165.15105 66.620667 Z M 165.15105 88.438377 C 157.536466 88.438377 152.052091 91.375877 148.697924 97.240461 C 145.36459 103.105044 143.703132 112.756086 143.703132 126.177962 C 143.703132 139.579005 145.36459 149.240464 148.697924 155.162339 C 152.052091 161.084214 157.536466 164.042548 165.15105 164.042548 C 172.520842 164.042548 177.906259 161.052964 181.317717 155.079006 C 184.729176 149.099839 186.437509 139.46963 186.437509 126.177962 C 186.437509 112.865461 184.729176 103.245669 181.317717 97.323794 C 177.906259 91.401919 172.520842 88.438377 165.15105 88.438377 Z M 259.35418 136.537338 L 284.161473 136.537338 L 284.161473 111.40192 L 311.828142 111.40192 L 311.828142 136.537338 L 327.755226 136.537338 L 327.755226 159.172756 L 311.828142 159.172756 L 311.828142 185.000882 L 284.161473 185.000882 L 284.161473 159.172756 L 228.531262 159.172756 L 228.531262 139.235255 L 265.578139 67.646709 L 294.229182 67.646709 Z M 259.35418 136.537338 " stroke="#ead1a9" stroke-width="6.287437" stroke-opacity="1" stroke-miterlimit="4"/></svg>