<svg id="visual" viewBox="0 0 960 540" width="960" height="540" xmlns="http://www.w3.org/2000/svg" xmlns:xlink="http://www.w3.org/1999/xlink" version="1.1"><rect x="0" y="0" width="960" height="540" fill="#0b3142"></rect><path d="M823 540L827.5 527.2C832 514.3 841 488.7 843.2 463C845.3 437.3 840.7 411.7 850 386C859.3 360.3 882.7 334.7 891.5 308.8C900.3 283 894.7 257 891.2 231.2C887.7 205.3 886.3 179.7 884.5 154C882.7 128.3 880.3 102.7 881 77C881.7 51.3 885.3 25.7 887.2 12.8L889 0L960 0L960 12.8C960 25.7 960 51.3 960 77C960 102.7 960 128.3 960 154C960 179.7 960 205.3 960 231.2C960 257 960 283 960 308.8C960 334.7 960 360.3 960 386C960 411.7 960 437.3 960 463C960 488.7 960 514.3 960 527.2L960 540Z" fill="#ead1a9" stroke-linecap="round" stroke-linejoin="miter"></path></svg>