<?xml version="1.0" standalone="no"?>
<svg viewBox="0 0 200 200" xmlns="http://www.w3.org/2000/svg">
  <path fill="#FF0066" d="M30.6,-37.6C46,-31,69.1,-30.5,80.8,-20.2C92.5,-9.9,92.8,10.2,83.7,23.8C74.6,37.5,56.2,44.8,40.7,55.1C25.2,65.4,12.6,78.8,0.1,78.6C-12.3,78.4,-24.6,64.6,-36.1,53C-47.6,41.3,-58.3,31.9,-61.8,20.3C-65.3,8.7,-61.6,-5.1,-57.5,-18.9C-53.4,-32.8,-48.8,-46.8,-39.1,-55.3C-29.4,-63.7,-14.7,-66.6,-3.6,-61.8C7.6,-56.9,15.2,-44.2,30.6,-37.6Z" transform="translate(100 100)" />
</svg>
